# xmcd CD database file
#
# Track frame offsets:
#	150
#	15657
#	30040
#	44900
#	61282
#	73642
#	89460
#	107379
#	124315
#	142617
#	157697
#	177427
#	192622
#	207662
#	224385
#	242627
#	257822
#	277695
#	295452
#	313115
#
# Disc length: 4469 seconds
#
# Revision: 0
# Processed by: cddbd v1.5.1PL2 Copyright (c) Steve Scherf et al.
# Submitted via: CD2WAV32(JP) R3.22
#
DISCID=25117314
DTITLE=Various Artist - Millennium MAX Pop Music: The Modern Era 1976-1999
DYEAR=2000
DGENRE=Pop
TTITLE0=AEROSMITH - DREAM ON
TTITLE1=WILD CHERRY - PLAY THAT FUNKY MUSIC
TTITLE2=BOZ SCAGGS - LOWDOWN
TTITLE3=HEATWAVE - BOOGIE NIGHTS
TTITLE4=JAMES TAYLOR - YOUR SMILING FACE
TTITLE5=BILLY JOEL - JUST THE WAY YOU ARE
TTITLE6=EDDIE MONEY - TWO TICKETS TO PARADISE
TTITLE7=THE JACKSONS - SHAKE YOUR BODY (DOWN TO THE GROUND)
TTITLE8=ELECTRIC LIGHT ORCHESTRA - DON'T BRING ME DOWN
TTITLE9=BRUCE SPRINGSTEEN - HUNGRY HEART
TTITLE10=BARBARA STREISAND and BARRY GIBB - GUILTY
TTITLE11=REO SPEEDWAGON - KEEP ON LOVING YOU
TTITLE12=JOURNEY - OPEN ARMS
TTITLE13=PAUL McCARTNEY  and STEVIE WONDER/ EBONY AND IVORY
TTITLE14=TOTO - ROSANNA
TTITLE15=MEN AT WORK - WHO CAN IT BE NOW?
TTITLE16=NEIL DIAMOND - HEARTLIGHT
TTITLE17=HERBIE HANCOCK - ROCKIT
TTITLE18=CYNDI LAUPER - GIRLS JUST WANT TO HAVE FUN
TTITLE19=MICHAEL JACKSON - BILLIE JEAN
EXTD=
EXTT0=
EXTT1=
EXTT2=
EXTT3=
EXTT4=
EXTT5=
EXTT6=
EXTT7=
EXTT8=
EXTT9=
EXTT10=
EXTT11=
EXTT12=
EXTT13=
EXTT14=
EXTT15=
EXTT16=
EXTT17=
EXTT18=
EXTT19=
PLAYORDER=
